<?xml version="1.0" encoding="UTF-8" standalone="no"?>
<svg width="366px" height="313px" viewBox="0 0 366 313" version="1.1" xmlns="http://www.w3.org/2000/svg" xmlns:xlink="http://www.w3.org/1999/xlink">
    <!-- Generator: Sketch 3.8.1 (29687) - http://www.bohemiancoding.com/sketch -->
    <title>Logo</title>
    <desc>Created with Sketch.</desc>
    <defs></defs>
    <g id="Page-1" stroke="none" stroke-width="1" fill="none" fill-rule="evenodd">
        <g id="Base-Copy-6" transform="translate(-117.000000, -188.000000)" fill="#000000">
            <g id="Group">
                <path d="M234.466578,299.850334 C234.477345,300.312711 234.482759,300.776413 234.482759,301.241379 C234.482759,333.616692 208.237382,359.862069 175.862069,359.862069 C143.486756,359.862069 117.241379,333.616692 117.241379,301.241379 C117.241379,268.866066 143.486756,242.62069 175.862069,242.62069 C187.259041,242.62069 197.896375,245.873089 206.896552,251.500369 L206.896552,202.616689 C206.896552,195.001178 213.07026,188.827586 220.689655,188.827586 C228.307376,188.827586 234.482759,195.004825 234.482759,202.616689 L234.482759,299.176415 C234.482759,299.402365 234.477324,299.627046 234.466578,299.850334 Z M351.724138,311.58622 L351.724138,363.310345 C351.724138,391.876797 328.572734,415.034483 300,415.034483 C271.433547,415.034483 248.275862,391.883078 248.275862,363.310345 L248.275862,311.586207 C248.275862,303.968486 254.451245,297.793103 262.068966,297.793103 C269.686686,297.793103 275.862069,303.968486 275.862069,311.586207 L275.862069,363.304397 C275.862069,376.633767 286.668989,387.448276 300,387.448276 C313.333942,387.448276 324.137931,376.638693 324.137931,363.304397 L324.137931,311.586207 C324.137931,303.968486 330.313314,297.793103 337.931034,297.793103 C345.548755,297.793103 351.724138,303.968486 351.724138,311.586207 Z M180.680731,424.733937 C184.222286,422.079539 192.078394,419.527849 198.760607,426.027883 C205.469467,432.553837 235.344837,472.420662 299.310345,472.965517 C363.275853,473.510372 396.289712,428.151166 401.287538,424.733937 C409.803167,418.911436 416.372229,423.287109 419.059969,425.622441 C421.74771,427.957773 425.165838,433.802331 422.350812,441.303004 C419.462749,448.998289 374.504301,500.551725 299.310345,500.551724 C224.116389,500.551724 186.240278,454.136122 179.105267,445.468885 C170.978583,435.597017 177.139177,427.388335 180.680731,424.733937 Z M424.137931,359.862069 C456.513244,359.862069 482.758621,333.616692 482.758621,301.241379 C482.758621,268.866066 456.513244,242.62069 424.137931,242.62069 C391.762618,242.62069 365.517241,268.866066 365.517241,301.241379 C365.517241,333.616692 391.762618,359.862069 424.137931,359.862069 Z M424.137931,332.275862 C441.277803,332.275862 455.172414,318.381251 455.172414,301.241379 C455.172414,284.101508 441.277803,270.206897 424.137931,270.206897 C406.998059,270.206897 393.103448,284.101508 393.103448,301.241379 C393.103448,318.381251 406.998059,332.275862 424.137931,332.275862 Z M175.862069,332.275862 C193.001941,332.275862 206.896552,318.381251 206.896552,301.241379 C206.896552,284.101508 193.001941,270.206897 175.862069,270.206897 C158.722197,270.206897 144.827586,284.101508 144.827586,301.241379 C144.827586,318.381251 158.722197,332.275862 175.862069,332.275862 Z" id="Logo"></path>
            </g>
        </g>
    </g>
</svg>