<?xml version="1.0" encoding="UTF-8" standalone="no"?>
<svg width="256px" height="1027px" viewBox="0 0 256 1027" version="1.1" xmlns="http://www.w3.org/2000/svg" xmlns:xlink="http://www.w3.org/1999/xlink">
    <!-- Generator: Sketch 3.8.3 (29802) - http://www.bohemiancoding.com/sketch -->
    <title>Artboard 3</title>
    <desc>Created with Sketch.</desc>
    <defs>
        <ellipse id="path-1" cx="214.709677" cy="84.5360825" rx="41.2903226" ry="41.2371134"></ellipse>
        <mask id="mask-2" maskContentUnits="userSpaceOnUse" maskUnits="objectBoundingBox" x="0" y="0" width="82.5806452" height="82.4742268" fill="white">
            <use xlink:href="#path-1"></use>
        </mask>
        <ellipse id="path-3" cx="41.2903226" cy="78.3505155" rx="41.2903226" ry="41.2371134"></ellipse>
        <mask id="mask-4" maskContentUnits="userSpaceOnUse" maskUnits="objectBoundingBox" x="0" y="0" width="82.5806452" height="82.4742268" fill="white">
            <use xlink:href="#path-3"></use>
        </mask>
        <ellipse id="path-5" cx="41.2903226" cy="41.2371134" rx="41.2903226" ry="41.2371134"></ellipse>
        <mask id="mask-6" maskContentUnits="userSpaceOnUse" maskUnits="objectBoundingBox" x="0" y="0" width="82.5806452" height="82.4742268" fill="white">
            <use xlink:href="#path-5"></use>
        </mask>
        <ellipse id="path-7" cx="41.2903226" cy="78.3505155" rx="41.2903226" ry="41.2371134"></ellipse>
        <mask id="mask-8" maskContentUnits="userSpaceOnUse" maskUnits="objectBoundingBox" x="0" y="0" width="82.5806452" height="82.4742268" fill="white">
            <use xlink:href="#path-7"></use>
        </mask>
        <ellipse id="path-9" cx="41.2903226" cy="78.3505155" rx="41.2903226" ry="41.2371134"></ellipse>
        <mask id="mask-10" maskContentUnits="userSpaceOnUse" maskUnits="objectBoundingBox" x="0" y="0" width="82.5806452" height="82.4742268" fill="white">
            <use xlink:href="#path-9"></use>
        </mask>
    </defs>
    <g id="Page-1" stroke="none" stroke-width="1" fill="none" fill-rule="evenodd" opacity="0.0600000024">
        <g id="Artboard-3">
            <g id="Group-6" transform="translate(0.000000, 26.000000)">
                <g id="Group-5">
                    <path d="M82.8184102,76.1913257 C82.8262477,76.5174598 82.8301887,76.8445548 82.8301887,77.1725664 C82.8301887,99.3983619 64.7357346,117.415929 42.4150943,117.415929 C20.0944541,117.415929 2,99.3983619 2,77.1725664 C2,54.9467708 20.0944541,36.9292035 42.4150943,36.9292035 C50.272554,36.9292035 57.6062931,39.1619899 63.8113208,43.0251426 L63.8113208,9.50733965 C63.8113208,4.25658095 68.0676846,0 73.3207547,0 C78.5726701,0 82.8301887,4.25529167 82.8301887,9.50733965 L82.8301887,75.7138993 C82.8301887,75.8739965 82.8262317,76.0331695 82.8184102,76.1913257 Z M163.660377,84.2743472 L163.660377,119.783186 C163.660377,139.394182 147.765546,155.292035 128.15671,155.292035 L127.84329,155.292035 C108.235156,155.292035 92.3396226,139.398494 92.3396226,119.783186 L92.3396226,84.2743363 C92.3396226,79.0447373 96.5971412,74.8053097 101.849057,74.8053097 C107.100972,74.8053097 111.358491,79.0447373 111.358491,84.2743363 L111.358491,119.718305 C111.358491,128.899132 118.809148,136.353982 128,136.353982 C137.192873,136.353982 144.641509,128.905936 144.641509,119.718305 L144.641509,84.2743363 C144.641509,79.0447373 148.899028,74.8053097 154.150943,74.8053097 C159.402859,74.8053097 163.660377,79.0447373 163.660377,84.2743363 Z M45.7372438,161.950754 C48.1789118,160.128498 53.5951795,158.376751 58.202124,162.839053 C62.8274397,167.31915 83.4245348,194.687901 127.524528,195.061947 C171.624522,195.435992 194.385397,164.296696 197.831068,161.950754 C203.702033,157.953581 208.230967,160.9575 210.083986,162.560716 C211.937006,164.163931 214.29358,168.176246 212.352805,173.325492 C210.361676,178.608338 179.365795,214 127.524528,214 C75.6832612,214 49.5701844,182.135484 44.651065,176.185387 C39.0482532,169.408306 43.2955758,163.77301 45.7372438,161.950754 Z M213.584906,117.415929 C235.905546,117.415929 254,99.3983619 254,77.1725664 C254,54.9467708 235.905546,36.9292035 213.584906,36.9292035 C191.264265,36.9292035 173.169811,54.9467708 173.169811,77.1725664 C173.169811,99.3983619 191.264265,117.415929 213.584906,117.415929 Z M213.584906,98.4778761 C225.401715,98.4778761 234.981132,88.939164 234.981132,77.1725664 C234.981132,65.4059687 225.401715,55.8672566 213.584906,55.8672566 C201.768096,55.8672566 192.188679,65.4059687 192.188679,77.1725664 C192.188679,88.939164 201.768096,98.4778761 213.584906,98.4778761 Z M42.4150943,98.4778761 C54.2319039,98.4778761 63.8113208,88.939164 63.8113208,77.1725664 C63.8113208,65.4059687 54.2319039,55.8672566 42.4150943,55.8672566 C30.5982848,55.8672566 21.0188679,65.4059687 21.0188679,77.1725664 C21.0188679,88.939164 30.5982848,98.4778761 42.4150943,98.4778761 Z" id="Logo" fill="#0D0F15"></path>
                    <g id="Group-3-Copy" transform="translate(0.000000, 255.422680)">
                        <g id="Group-2">
                            <g id="Group">
                                <use id="Oval-11" stroke="#0D0F15" mask="url(#mask-2)" stroke-width="123.71134" xlink:href="#path-1"></use>
                                <rect id="Rectangle-9" fill="#FFFFFF" x="173.419355" y="43.2989691" width="82.5806452" height="41.2371134"></rect>
                                <ellipse id="Oval-3-Copy" fill="#0D0F15" cx="183.741935" cy="84.5360825" rx="10.3225806" ry="10.3092784"></ellipse>
                                <ellipse id="Oval-3-Copy" fill="#0D0F15" cx="245.677419" cy="84.5360825" rx="10.3225806" ry="10.3092784"></ellipse>
                                <use id="Oval-11" stroke="#0D0F15" mask="url(#mask-4)" stroke-width="123.71134" xlink:href="#path-3"></use>
                                <rect id="Rectangle-9" fill="#0D0F15" x="61.9354839" y="0" width="20.6451613" height="88.6597938" rx="10.3225806"></rect>
                                <g id="u" transform="translate(92.064682, 75.035887)" fill="#0D0F15">
                                    <ellipse id="Oval-3-Copy" cx="61.5888425" cy="10.4655321" rx="10.1059339" ry="10.167528"></ellipse>
                                    <ellipse id="Oval-3" cx="10.2817935" cy="10.4655321" rx="10.1059339" ry="10.167528"></ellipse>
                                    <path d="M0.175859637,9.68341459 L71.6947764,9.68341459 C71.6947764,9.68341459 71.6947764,14.2085132 71.6947764,14.9879129 L71.6947764,45.6647972 C71.6947764,65.5323746 55.6890639,81.6382284 35.935318,81.6382284 C16.1859145,81.6382284 0.175859637,65.5198994 0.175859637,45.6647972 L0.175859637,13.7330115 C0.175859637,12.6833791 0.175859637,9.68341459 0.175859637,9.68341459 Z M20.3877274,45.6647972 C20.3877274,54.2940538 27.3534865,61.3031723 35.935318,61.3031723 C44.5249783,61.3031723 51.4829086,54.3030209 51.4829086,45.6647972 L51.4829086,9.68341459 L20.3877274,9.68341459 L20.3877274,45.6647972 Z" id="Combined-Shape"></path>
                                </g>
                            </g>
                        </g>
                        <path d="M52.4720955,171.498036 C52.4720955,171.498036 74.8582334,206.146017 127.645864,206.146017 C180.433494,206.146016 203.431794,171.498036 203.431794,171.498036" id="Path-19" stroke="#0D0F15" stroke-width="20.2270651" stroke-linecap="round" stroke-linejoin="round"></path>
                    </g>
                    <g id="Group-3-Copy" transform="translate(0.000000, 769.268041)">
                        <g id="Group-2">
                            <g id="Group">
                                <g id="Group-4" transform="translate(214.709677, 84.536082) rotate(-180.000000) translate(-214.709677, -84.536082) translate(173.419355, 43.298969)">
                                    <use id="Oval-11" stroke="#0D0F15" mask="url(#mask-6)" stroke-width="123.71134" xlink:href="#path-5"></use>
                                    <rect id="Rectangle-9" fill="#FFFFFF" x="0" y="0" width="82.5806452" height="41.2371134"></rect>
                                    <ellipse id="Oval-3-Copy" fill="#0D0F15" cx="10.3225806" cy="41.2371134" rx="10.3225806" ry="10.3092784"></ellipse>
                                    <ellipse id="Oval-3-Copy" fill="#0D0F15" cx="72.2580645" cy="41.2371134" rx="10.3225806" ry="10.3092784"></ellipse>
                                </g>
                                <use id="Oval-11" stroke="#0D0F15" mask="url(#mask-8)" stroke-width="123.71134" xlink:href="#path-7"></use>
                                <rect id="Rectangle-9" fill="#0D0F15" x="61.9354839" y="0" width="20.6451613" height="88.6597938" rx="10.3225806"></rect>
                                <g id="u" transform="translate(92.064682, 75.035887)" fill="#0D0F15">
                                    <ellipse id="Oval-3-Copy" cx="61.5888425" cy="10.4655321" rx="10.1059339" ry="10.167528"></ellipse>
                                    <ellipse id="Oval-3" cx="10.2817935" cy="10.4655321" rx="10.1059339" ry="10.167528"></ellipse>
                                    <path d="M0.175859637,9.68341459 L71.6947764,9.68341459 C71.6947764,9.68341459 71.6947764,14.2085132 71.6947764,14.9879129 L71.6947764,45.6647972 C71.6947764,65.5323746 55.6890639,81.6382284 35.935318,81.6382284 C16.1859145,81.6382284 0.175859637,65.5198994 0.175859637,45.6647972 L0.175859637,13.7330115 C0.175859637,12.6833791 0.175859637,9.68341459 0.175859637,9.68341459 Z M20.3877274,45.6647972 C20.3877274,54.2940538 27.3534865,61.3031723 35.935318,61.3031723 C44.5249783,61.3031723 51.4829086,54.3030209 51.4829086,45.6647972 L51.4829086,9.68341459 L20.3877274,9.68341459 L20.3877274,45.6647972 Z" id="Combined-Shape"></path>
                                </g>
                            </g>
                        </g>
                        <path d="M52.4720955,171.498036 C52.4720955,171.498036 74.8582334,206.146017 127.645864,206.146017 C180.433494,206.146016 203.431794,171.498036 203.431794,171.498036" id="Path-19" stroke="#0D0F15" stroke-width="20.2270651" stroke-linecap="round" stroke-linejoin="round"></path>
                    </g>
                    <g id="Group-3-Copy" transform="translate(0.000000, 512.845361)">
                        <g id="Group-2">
                            <g id="Group">
                                <rect id="Rectangle-12" fill="#000000" x="173.419355" y="74.2268041" width="82.5806452" height="18.556701" rx="9.27835052"></rect>
                                <use id="Oval-11" stroke="#0D0F15" mask="url(#mask-10)" stroke-width="123.71134" xlink:href="#path-9"></use>
                                <rect id="Rectangle-9" fill="#0D0F15" x="61.9354839" y="0" width="20.6451613" height="88.6597938" rx="10.3225806"></rect>
                                <g id="u" transform="translate(92.064682, 75.035887)" fill="#0D0F15">
                                    <ellipse id="Oval-3-Copy" cx="61.5888425" cy="10.4655321" rx="10.1059339" ry="10.167528"></ellipse>
                                    <ellipse id="Oval-3" cx="10.2817935" cy="10.4655321" rx="10.1059339" ry="10.167528"></ellipse>
                                    <path d="M0.175859637,9.68341459 L71.6947764,9.68341459 C71.6947764,9.68341459 71.6947764,14.2085132 71.6947764,14.9879129 L71.6947764,45.6647972 C71.6947764,65.5323746 55.6890639,81.6382284 35.935318,81.6382284 C16.1859145,81.6382284 0.175859637,65.5198994 0.175859637,45.6647972 L0.175859637,13.7330115 C0.175859637,12.6833791 0.175859637,9.68341459 0.175859637,9.68341459 Z M20.3877274,45.6647972 C20.3877274,54.2940538 27.3534865,61.3031723 35.935318,61.3031723 C44.5249783,61.3031723 51.4829086,54.3030209 51.4829086,45.6647972 L51.4829086,9.68341459 L20.3877274,9.68341459 L20.3877274,45.6647972 Z" id="Combined-Shape"></path>
                                </g>
                            </g>
                        </g>
                        <path d="M52.4720955,171.498036 C52.4720955,171.498036 74.8582334,206.146017 127.645864,206.146017 C180.433494,206.146016 203.431794,171.498036 203.431794,171.498036" id="Path-19" stroke="#0D0F15" stroke-width="20.2270651" stroke-linecap="round" stroke-linejoin="round"></path>
                    </g>
                </g>
            </g>
        </g>
    </g>
</svg>