<?xml version="1.0" encoding="UTF-8" standalone="no"?>
<svg width="80px" height="68px" viewBox="0 0 80 68" version="1.1" xmlns="http://www.w3.org/2000/svg" xmlns:xlink="http://www.w3.org/1999/xlink">
    <!-- Generator: Sketch 3.8.3 (29802) - http://www.bohemiancoding.com/sketch -->
    <title>Logo</title>
    <desc>Created with Sketch.</desc>
    <defs></defs>
    <g id="Page-1" stroke="none" stroke-width="1" fill="none" fill-rule="evenodd">
        <g id="Artboard-1-Copy-2" transform="translate(-147.000000, -174.000000)" fill="#6336FF">
            <g id="Group-7" transform="translate(147.000000, 174.000000)">
                <path d="M25.6565339,24.2060153 C25.6590913,24.3110757 25.6603774,24.4164501 25.6603774,24.5221239 C25.6603774,31.5845262 19.9161062,37.3097345 12.8301887,37.3097345 C5.74427113,37.3097345 0,31.5845262 0,24.5221239 C0,17.4597216 5.74427113,11.7345133 12.8301887,11.7345133 C15.3246203,11.7345133 17.6527914,12.4439968 19.6226415,13.6715407 L19.6226415,3.02755582 C19.6226415,1.35548291 20.9776273,0 22.6415094,0 C24.3087842,0 25.6603774,1.34288386 25.6603774,3.02755582 L25.6603774,24.0520902 C25.6603774,24.1037105 25.6590859,24.1550291 25.6565339,24.2060153 Z M51.3207547,26.7787611 L51.3207547,38.0619469 C51.3207547,44.2934784 46.2677392,49.3451327 40.0331662,49.3451327 L39.9668338,49.3451327 C33.7328708,49.3451327 28.6792453,44.2948485 28.6792453,38.0619469 L28.6792453,26.7787611 C28.6792453,25.1170193 30.0308385,23.7699115 31.6981132,23.7699115 C33.3653879,23.7699115 34.7169811,25.1170193 34.7169811,26.7787611 L34.7169811,38.0348865 C34.7169811,40.9683395 37.0822692,43.3274336 40,43.3274336 C42.9117938,43.3274336 45.2830189,40.9578796 45.2830189,38.0348865 L45.2830189,26.7787611 C45.2830189,25.1170193 46.6346121,23.7699115 48.3018868,23.7699115 C49.9691615,23.7699115 51.3207547,25.1170193 51.3207547,26.7787611 Z M13.8848393,51.4609872 C14.659972,50.8819526 16.3794221,50.3253228 17.8419441,51.7432505 C19.3102983,53.1668326 25.8490587,61.8634453 39.8490566,61.9823009 C53.8490545,62.1011564 61.0747293,52.2064268 62.1685932,51.4609872 C64.0323913,50.1908575 65.4701483,51.1453738 66.0584084,51.6548068 C66.6466685,52.1642398 67.3947871,53.439181 66.7786683,55.0753899 C66.1465638,56.7540515 56.3066017,68.0000001 39.8490566,68 C23.3915115,67.9999999 15.1016459,57.8748266 13.5400206,55.9841417 C11.7613502,53.8306767 13.1097066,52.0400218 13.8848393,51.4609872 Z M67.1698113,37.3097345 C74.2557289,37.3097345 80,31.5845262 80,24.5221239 C80,17.4597216 74.2557289,11.7345133 67.1698113,11.7345133 C60.0838938,11.7345133 54.3396226,17.4597216 54.3396226,24.5221239 C54.3396226,31.5845262 60.0838938,37.3097345 67.1698113,37.3097345 Z M67.1698113,31.2920354 C70.9211794,31.2920354 73.9622642,28.2610428 73.9622642,24.5221239 C73.9622642,20.783205 70.9211794,17.7522124 67.1698113,17.7522124 C63.4184432,17.7522124 60.3773585,20.783205 60.3773585,24.5221239 C60.3773585,28.2610428 63.4184432,31.2920354 67.1698113,31.2920354 Z M12.8301887,31.2920354 C16.5815568,31.2920354 19.6226415,28.2610428 19.6226415,24.5221239 C19.6226415,20.783205 16.5815568,17.7522124 12.8301887,17.7522124 C9.07882057,17.7522124 6.03773585,20.783205 6.03773585,24.5221239 C6.03773585,28.2610428 9.07882057,31.2920354 12.8301887,31.2920354 Z" id="Logo"></path>
            </g>
        </g>
    </g>
</svg>