<?xml version="1.0" encoding="UTF-8" standalone="no"?>
<svg width="217px" height="7px" viewBox="0 0 217 7" version="1.1" xmlns="http://www.w3.org/2000/svg" xmlns:xlink="http://www.w3.org/1999/xlink">
    <!-- Generator: Sketch 3.8.3 (29802) - http://www.bohemiancoding.com/sketch -->
    <title>Path 2</title>
    <desc>Created with Sketch.</desc>
    <defs></defs>
    <g id="Page-1" stroke="none" stroke-width="1" fill="none" fill-rule="evenodd" stroke-linecap="round" stroke-linejoin="round">
        <g id="Artboard-1-Copy-2" transform="translate(-147.000000, -621.000000)" stroke-width="2" stroke="#6336FF">
            <g id="Group-7" transform="translate(147.000000, 174.000000)">
                <polyline id="Path-2" points="1 452.188863 4.96178329 448.227079 8.87343507 452.138731 12.8835165 448.12865 17.009931 452.255064 21.0689899 448.196005 25.0147234 452.141739 28.9832011 448.173261 33.0678928 452.257953 37.0428699 448.282976 40.9277144 452.16782 44.7790726 448.316462 48.5383166 452.075706 52.480823 448.1332 56.6141652 452.266542 60.5056818 448.375025 64.4403151 452.309659 68.4534814 448.296492 72.2752228 452.118234 76.2335639 448.159893 80.4191331 452.345462 84.6796719 448.084923 88.9265005 452.331752 93.1234739 448.134778 97.3263585 452.337663 101.664022 448 105.813366 452.149345 109.923644 448.039068 114.251686 452.36711 118.510818 448.107979 122.851319 452.44848 127.184651 448.115148 131.424521 452.355018 135.705191 448.074347 140.037937 452.407093 144.37416 448.07087 148.723222 452.419933 153.098338 448.044817 157.524584 452.471063 161.894186 448.10146 166.208584 452.415857 170.452183 448.172258 174.540052 452.260127 178.695384 448.104796 182.890344 452.299756 187.157303 448.032796 191.396466 452.271959 195.506319 448.162106 199.505128 452.160914 203.603213 448.062829 207.762464 452.222079 211.822739 448.161804 215.926318 452.265383"></polyline>
            </g>
        </g>
    </g>
</svg>